# xmcd CD database file
#
# Track frame offsets:
#	150
#	75465
#	94885
#	105264
#	117565
#	141304
#	148659
#	155583
#	189507
#	215796
#	230605
#	259081
#
# Disc length: 3821 seconds
#
# Revision: 0
# Processed by: cddbd v1.4PL0 Copyright (c) Steve Scherf et al.
# Submitted via: CDex 1.50Beta7
#
DISCID=ad0eeb0c
DTITLE=Various Artist - Paul's Dream Music
DYEAR=1900
DGENRE=New Age
TTITLE0=Epsilon
TTITLE1=Alpha
TTITLE2=Beta
TTITLE3=Delta
TTITLE4=Chant
TTITLE5=Chanting
TTITLE6=Organ
TTITLE7=Hildegard I
TTITLE8=Hildegard II
TTITLE9=Hildegard III
TTITLE10=Hildegard IV
TTITLE11=Hildegard V
EXTD=
EXTT0=
EXTT1=
EXTT2=
EXTT3=
EXTT4=
EXTT5=
EXTT6=
EXTT7=
EXTT8=
EXTT9=
EXTT10=
EXTT11=
PLAYORDER=
